<mxfile host="app.diagrams.net" modified="2023-08-09T02:55:56.862Z" agent="Mozilla/5.0 (Windows NT 10.0; Win64; x64) AppleWebKit/537.36 (KHTML, like Gecko) Chrome/115.0.0.0 Safari/537.36" etag="pD7zh3Hwn1SsoB7yxVi6" version="21.6.7" type="github">
  <diagram name="Use Case Diagram" id="SVpt6ulZpzo3Nn2VMH7D">
    <mxGraphModel dx="1136" dy="612" grid="1" gridSize="10" guides="1" tooltips="1" connect="1" arrows="1" fold="1" page="1" pageScale="1" pageWidth="850" pageHeight="1100" math="0" shadow="0">
      <root>
        <mxCell id="0" />
        <mxCell id="1" parent="0" />
        <mxCell id="DzJsTRiFlQyrxP4PPhJw-1" value="" style="rounded=0;whiteSpace=wrap;html=1;" vertex="1" parent="1">
          <mxGeometry x="250" y="30" width="370" height="530" as="geometry" />
        </mxCell>
        <mxCell id="DzJsTRiFlQyrxP4PPhJw-12" style="rounded=0;orthogonalLoop=1;jettySize=auto;html=1;entryX=0;entryY=0.5;entryDx=0;entryDy=0;" edge="1" parent="1" target="DzJsTRiFlQyrxP4PPhJw-7">
          <mxGeometry relative="1" as="geometry">
            <mxPoint x="180" y="230" as="sourcePoint" />
          </mxGeometry>
        </mxCell>
        <mxCell id="DzJsTRiFlQyrxP4PPhJw-14" style="rounded=0;orthogonalLoop=1;jettySize=auto;html=1;entryX=0;entryY=0.5;entryDx=0;entryDy=0;exitX=1;exitY=0.3333333333333333;exitDx=0;exitDy=0;exitPerimeter=0;" edge="1" parent="1" source="DzJsTRiFlQyrxP4PPhJw-2" target="DzJsTRiFlQyrxP4PPhJw-8">
          <mxGeometry relative="1" as="geometry" />
        </mxCell>
        <mxCell id="DzJsTRiFlQyrxP4PPhJw-2" value="Pengunjung" style="shape=umlActor;html=1;verticalLabelPosition=bottom;verticalAlign=top;align=center;strokeColor=default;" vertex="1" parent="1">
          <mxGeometry x="150" y="210" width="30" height="60" as="geometry" />
        </mxCell>
        <mxCell id="DzJsTRiFlQyrxP4PPhJw-3" value="Agen" style="shape=umlActor;html=1;verticalLabelPosition=bottom;verticalAlign=top;align=center;" vertex="1" parent="1">
          <mxGeometry x="150" y="410" width="30" height="60" as="geometry" />
        </mxCell>
        <mxCell id="DzJsTRiFlQyrxP4PPhJw-23" style="rounded=0;orthogonalLoop=1;jettySize=auto;html=1;entryX=1;entryY=0.5;entryDx=0;entryDy=0;" edge="1" parent="1" source="DzJsTRiFlQyrxP4PPhJw-4" target="DzJsTRiFlQyrxP4PPhJw-21">
          <mxGeometry relative="1" as="geometry" />
        </mxCell>
        <mxCell id="DzJsTRiFlQyrxP4PPhJw-4" value="Kasir POS" style="shape=umlActor;html=1;verticalLabelPosition=bottom;verticalAlign=top;align=center;" vertex="1" parent="1">
          <mxGeometry x="680" y="457" width="30" height="60" as="geometry" />
        </mxCell>
        <mxCell id="DzJsTRiFlQyrxP4PPhJw-25" style="rounded=0;orthogonalLoop=1;jettySize=auto;html=1;entryX=1;entryY=0.5;entryDx=0;entryDy=0;exitX=0;exitY=0.3333333333333333;exitDx=0;exitDy=0;exitPerimeter=0;" edge="1" parent="1" source="DzJsTRiFlQyrxP4PPhJw-5" target="DzJsTRiFlQyrxP4PPhJw-24">
          <mxGeometry relative="1" as="geometry" />
        </mxCell>
        <mxCell id="DzJsTRiFlQyrxP4PPhJw-5" value="Petugas&lt;br&gt;Lapangan" style="shape=umlActor;html=1;verticalLabelPosition=bottom;verticalAlign=top;align=center;" vertex="1" parent="1">
          <mxGeometry x="680" y="124" width="30" height="60" as="geometry" />
        </mxCell>
        <mxCell id="DzJsTRiFlQyrxP4PPhJw-6" value="Admin&lt;br&gt;Backoffice" style="shape=umlActor;html=1;verticalLabelPosition=bottom;verticalAlign=top;align=center;" vertex="1" parent="1">
          <mxGeometry x="680" y="300" width="30" height="60" as="geometry" />
        </mxCell>
        <mxCell id="DzJsTRiFlQyrxP4PPhJw-7" value="Beli tiket onsite di POS" style="ellipse;whiteSpace=wrap;html=1;" vertex="1" parent="1">
          <mxGeometry x="295" y="120" width="130" height="50" as="geometry" />
        </mxCell>
        <mxCell id="DzJsTRiFlQyrxP4PPhJw-8" value="Beli tiket di agen" style="ellipse;whiteSpace=wrap;html=1;" vertex="1" parent="1">
          <mxGeometry x="295" y="190" width="130" height="50" as="geometry" />
        </mxCell>
        <mxCell id="DzJsTRiFlQyrxP4PPhJw-9" value="Beli tiket di website online ticketing (B2C)" style="ellipse;whiteSpace=wrap;html=1;" vertex="1" parent="1">
          <mxGeometry x="295" y="260" width="130" height="50" as="geometry" />
        </mxCell>
        <mxCell id="DzJsTRiFlQyrxP4PPhJw-10" value="Tapping ticket di gate" style="ellipse;whiteSpace=wrap;html=1;" vertex="1" parent="1">
          <mxGeometry x="295" y="330" width="130" height="50" as="geometry" />
        </mxCell>
        <mxCell id="DzJsTRiFlQyrxP4PPhJw-15" style="rounded=0;orthogonalLoop=1;jettySize=auto;html=1;entryX=0.004;entryY=0.405;entryDx=0;entryDy=0;entryPerimeter=0;exitX=1;exitY=0.3333333333333333;exitDx=0;exitDy=0;exitPerimeter=0;" edge="1" parent="1" source="DzJsTRiFlQyrxP4PPhJw-2" target="DzJsTRiFlQyrxP4PPhJw-9">
          <mxGeometry relative="1" as="geometry">
            <mxPoint x="170" y="175" as="sourcePoint" />
            <mxPoint x="305" y="225" as="targetPoint" />
          </mxGeometry>
        </mxCell>
        <mxCell id="DzJsTRiFlQyrxP4PPhJw-16" style="rounded=0;orthogonalLoop=1;jettySize=auto;html=1;entryX=0;entryY=0.5;entryDx=0;entryDy=0;" edge="1" parent="1" target="DzJsTRiFlQyrxP4PPhJw-10">
          <mxGeometry relative="1" as="geometry">
            <mxPoint x="180" y="230" as="sourcePoint" />
            <mxPoint x="306" y="290" as="targetPoint" />
          </mxGeometry>
        </mxCell>
        <mxCell id="DzJsTRiFlQyrxP4PPhJw-17" value="Menyediakan stok ticket" style="ellipse;whiteSpace=wrap;html=1;" vertex="1" parent="1">
          <mxGeometry x="295" y="407" width="130" height="50" as="geometry" />
        </mxCell>
        <mxCell id="DzJsTRiFlQyrxP4PPhJw-18" style="rounded=0;orthogonalLoop=1;jettySize=auto;html=1;entryX=0;entryY=0.5;entryDx=0;entryDy=0;exitX=1;exitY=0.3333333333333333;exitDx=0;exitDy=0;exitPerimeter=0;" edge="1" parent="1" target="DzJsTRiFlQyrxP4PPhJw-17" source="DzJsTRiFlQyrxP4PPhJw-3">
          <mxGeometry relative="1" as="geometry">
            <mxPoint x="180" y="330" as="sourcePoint" />
            <mxPoint x="306" y="367" as="targetPoint" />
          </mxGeometry>
        </mxCell>
        <mxCell id="DzJsTRiFlQyrxP4PPhJw-19" value="Penjualan ticket" style="ellipse;whiteSpace=wrap;html=1;" vertex="1" parent="1">
          <mxGeometry x="295" y="470" width="130" height="50" as="geometry" />
        </mxCell>
        <mxCell id="DzJsTRiFlQyrxP4PPhJw-20" style="rounded=0;orthogonalLoop=1;jettySize=auto;html=1;entryX=0;entryY=0.5;entryDx=0;entryDy=0;exitX=1;exitY=0.3333333333333333;exitDx=0;exitDy=0;exitPerimeter=0;" edge="1" parent="1" source="DzJsTRiFlQyrxP4PPhJw-3" target="DzJsTRiFlQyrxP4PPhJw-19">
          <mxGeometry relative="1" as="geometry">
            <mxPoint x="190" y="440" as="sourcePoint" />
            <mxPoint x="305" y="442" as="targetPoint" />
          </mxGeometry>
        </mxCell>
        <mxCell id="DzJsTRiFlQyrxP4PPhJw-21" value="Penjualan ticket di POS" style="ellipse;whiteSpace=wrap;html=1;" vertex="1" parent="1">
          <mxGeometry x="450" y="470" width="130" height="50" as="geometry" />
        </mxCell>
        <mxCell id="DzJsTRiFlQyrxP4PPhJw-24" value="Mengarahkan pengunjung untuk scan ticket" style="ellipse;whiteSpace=wrap;html=1;" vertex="1" parent="1">
          <mxGeometry x="450" y="120" width="130" height="50" as="geometry" />
        </mxCell>
        <mxCell id="DzJsTRiFlQyrxP4PPhJw-26" style="rounded=0;orthogonalLoop=1;jettySize=auto;html=1;entryX=1;entryY=0.5;entryDx=0;entryDy=0;exitX=0;exitY=0.3333333333333333;exitDx=0;exitDy=0;exitPerimeter=0;" edge="1" parent="1" target="DzJsTRiFlQyrxP4PPhJw-27" source="DzJsTRiFlQyrxP4PPhJw-6">
          <mxGeometry relative="1" as="geometry">
            <mxPoint x="680" y="234" as="sourcePoint" />
          </mxGeometry>
        </mxCell>
        <mxCell id="DzJsTRiFlQyrxP4PPhJw-27" value="Pengaturan data master dan config aplikasi" style="ellipse;whiteSpace=wrap;html=1;" vertex="1" parent="1">
          <mxGeometry x="450" y="210" width="130" height="50" as="geometry" />
        </mxCell>
        <mxCell id="DzJsTRiFlQyrxP4PPhJw-29" style="rounded=0;orthogonalLoop=1;jettySize=auto;html=1;entryX=1;entryY=0.5;entryDx=0;entryDy=0;exitX=0;exitY=0.3333333333333333;exitDx=0;exitDy=0;exitPerimeter=0;" edge="1" parent="1" target="DzJsTRiFlQyrxP4PPhJw-30" source="DzJsTRiFlQyrxP4PPhJw-6">
          <mxGeometry relative="1" as="geometry">
            <mxPoint x="690" y="260" as="sourcePoint" />
          </mxGeometry>
        </mxCell>
        <mxCell id="DzJsTRiFlQyrxP4PPhJw-30" value="Pengaturan tarif tiket" style="ellipse;whiteSpace=wrap;html=1;" vertex="1" parent="1">
          <mxGeometry x="450" y="270" width="130" height="50" as="geometry" />
        </mxCell>
        <mxCell id="DzJsTRiFlQyrxP4PPhJw-31" style="rounded=0;orthogonalLoop=1;jettySize=auto;html=1;entryX=1;entryY=0.5;entryDx=0;entryDy=0;exitX=0;exitY=0.3333333333333333;exitDx=0;exitDy=0;exitPerimeter=0;" edge="1" parent="1" target="DzJsTRiFlQyrxP4PPhJw-32" source="DzJsTRiFlQyrxP4PPhJw-6">
          <mxGeometry relative="1" as="geometry">
            <mxPoint x="680" y="370" as="sourcePoint" />
          </mxGeometry>
        </mxCell>
        <mxCell id="DzJsTRiFlQyrxP4PPhJw-32" value="Laporan penjualan tiket" style="ellipse;whiteSpace=wrap;html=1;" vertex="1" parent="1">
          <mxGeometry x="450" y="330" width="130" height="50" as="geometry" />
        </mxCell>
        <mxCell id="DzJsTRiFlQyrxP4PPhJw-33" style="rounded=0;orthogonalLoop=1;jettySize=auto;html=1;entryX=1;entryY=0.5;entryDx=0;entryDy=0;exitX=0;exitY=0.3333333333333333;exitDx=0;exitDy=0;exitPerimeter=0;" edge="1" parent="1" target="DzJsTRiFlQyrxP4PPhJw-34" source="DzJsTRiFlQyrxP4PPhJw-6">
          <mxGeometry relative="1" as="geometry">
            <mxPoint x="680" y="250" as="sourcePoint" />
          </mxGeometry>
        </mxCell>
        <mxCell id="DzJsTRiFlQyrxP4PPhJw-34" value="Laporan transaksi pengunjung" style="ellipse;whiteSpace=wrap;html=1;" vertex="1" parent="1">
          <mxGeometry x="450" y="390" width="130" height="50" as="geometry" />
        </mxCell>
        <mxCell id="DzJsTRiFlQyrxP4PPhJw-35" value="Oceanarium Bintaro Jaya Xchange&lt;br style=&quot;font-size: 16px;&quot;&gt;Ticketing System" style="text;html=1;align=center;verticalAlign=middle;resizable=0;points=[];autosize=1;strokeColor=none;fillColor=none;fontSize=16;fontStyle=1" vertex="1" parent="1">
          <mxGeometry x="290" y="35" width="290" height="50" as="geometry" />
        </mxCell>
      </root>
    </mxGraphModel>
  </diagram>
</mxfile>
